<svg xmlns="http://www.w3.org/2000/svg" version="1.1" xmlns:xlink="http://www.w3.org/1999/xlink" xmlns:svgjs="http://svgjs.dev/svgjs" width="1000" height="164" viewBox="0 0 1000 164"><g transform="matrix(1,0,0,1,-0.6060606060606233,-0.35844754701187753)"><svg viewBox="0 0 396 65" data-background-color="#ffffff" preserveAspectRatio="xMidYMid meet" height="164" width="1000" xmlns="http://www.w3.org/2000/svg" xmlns:xlink="http://www.w3.org/1999/xlink"><g id="tight-bounds" transform="matrix(1,0,0,1,0.2400000000000091,0.14206762534007567)"><svg viewBox="0 0 395.52 64.71586474931986" height="64.71586474931986" width="395.52"><g><svg viewBox="0 0 395.52 64.71586474931986" height="64.71586474931986" width="395.52"><g><svg viewBox="0 0 395.52 64.71586474931986" height="64.71586474931986" width="395.52"><g id="textblocktransform"><svg viewBox="0 0 395.52 64.71586474931986" height="64.71586474931986" width="395.52" id="textblock"><g><svg viewBox="0 0 395.52 64.71586474931986" height="64.71586474931986" width="395.52"><g transform="matrix(1,0,0,1,0,0)"><svg width="395.52" viewBox="3.5 -33.2 257.28 42.1" height="64.71586474931986" data-palette-color="#97978d"><path d="M27 0L3.5 0 3.5-3.95 16.45-19.05 5.05-19.05 5.05-24.8 26.65-24.8 26.65-20.9 13.65-5.75 27-5.75 27 0ZM46.5 0.6L46.5 0.6Q43.6 0.6 41.07-0.28 38.55-1.15 36.7-2.8 34.85-4.45 33.8-6.88 32.75-9.3 32.75-12.4L32.75-12.4Q32.75-15.45 33.82-17.88 34.9-20.3 36.7-21.98 38.5-23.65 40.82-24.53 43.15-25.4 45.65-25.4L45.65-25.4Q48.5-25.4 50.7-24.5 52.9-23.6 54.37-22 55.85-20.4 56.6-18.23 57.35-16.05 57.35-13.5L57.35-13.5Q57.35-12.5 57.22-11.58 57.1-10.65 57-10.2L57-10.2 40.1-10.2Q40.65-7.5 42.55-6.25 44.45-5 47.5-5L47.5-5Q49.2-5 50.72-5.45 52.25-5.9 53.9-6.75L53.9-6.75 56.35-2.3Q54.2-0.95 51.6-0.18 49 0.6 46.5 0.6ZM45.9-19.8L45.9-19.8Q43.7-19.8 42.22-18.65 40.75-17.5 40.2-15.15L40.2-15.15 50.8-15.15Q50.25-19.8 45.9-19.8ZM70.95 0L63.6 0 63.6-24.8 69.59-24.8 70.15-21.5 70.34-21.5Q71.95-23.1 74.02-24.25 76.09-25.4 78.9-25.4L78.9-25.4Q83.09-25.4 85.05-22.7 87-20 87-15.3L87-15.3 87 0 79.65 0 79.65-14.35Q79.65-16.85 78.84-18 78.05-19.15 76-19.15L76-19.15Q74.5-19.15 73.37-18.5 72.25-17.85 70.95-16.55L70.95-16.55 70.95 0ZM104.99-5.4L104.99-5.4Q107.54-5.4 109.04-8.08 110.54-10.75 110.54-16.45L110.54-16.45Q110.54-21.55 109.04-24.2 107.54-26.85 104.99-26.85L104.99-26.85Q102.44-26.85 100.94-24.2 99.44-21.55 99.44-16.45L99.44-16.45Q99.44-10.75 100.94-8.08 102.44-5.4 104.99-5.4ZM114.34 8.9L114.34 8.9Q111.94 8.9 109.94 8.25 107.94 7.6 106.34 6.45 104.74 5.3 103.54 3.7 102.34 2.1 101.59 0.2L101.59 0.2Q97.19-0.95 94.57-5.13 91.94-9.3 91.94-16.45L91.94-16.45Q91.94-20.55 92.89-23.68 93.84-26.8 95.57-28.93 97.29-31.05 99.69-32.13 102.09-33.2 104.99-33.2L104.99-33.2Q107.89-33.2 110.29-32.13 112.69-31.05 114.42-28.93 116.14-26.8 117.09-23.68 118.04-20.55 118.04-16.45L118.04-16.45Q118.04-9.7 115.67-5.58 113.29-1.45 109.24-0.1L109.24-0.1Q110.14 1.65 111.82 2.33 113.49 3 115.24 3L115.24 3Q115.99 3 116.67 2.8 117.34 2.6 117.84 2.35L117.84 2.35 119.14 7.85Q118.29 8.3 117.12 8.6 115.94 8.9 114.34 8.9ZM131.14 0.6L131.14 0.6Q126.89 0.6 124.99-2.1 123.09-4.8 123.09-9.5L123.09-9.5 123.09-24.8 130.44-24.8 130.44-10.45Q130.44-7.95 131.19-6.8 131.94-5.65 134.04-5.65L134.04-5.65Q135.44-5.65 136.52-6.25 137.59-6.85 138.89-8.5L138.89-8.5 138.89-24.8 146.24-24.8 146.24 0 140.24 0 139.69-3.55 139.49-3.55Q137.84-1.65 135.84-0.53 133.84 0.6 131.14 0.6ZM166.49 0.6L166.49 0.6Q163.59 0.6 161.06-0.28 158.54-1.15 156.69-2.8 154.84-4.45 153.79-6.88 152.74-9.3 152.74-12.4L152.74-12.4Q152.74-15.45 153.81-17.88 154.89-20.3 156.69-21.98 158.49-23.65 160.81-24.53 163.14-25.4 165.64-25.4L165.64-25.4Q168.49-25.4 170.69-24.5 172.89-23.6 174.36-22 175.84-20.4 176.59-18.23 177.34-16.05 177.34-13.5L177.34-13.5Q177.34-12.5 177.21-11.58 177.09-10.65 176.99-10.2L176.99-10.2 160.09-10.2Q160.64-7.5 162.54-6.25 164.44-5 167.49-5L167.49-5Q169.19-5 170.71-5.45 172.24-5.9 173.89-6.75L173.89-6.75 176.34-2.3Q174.19-0.95 171.59-0.18 168.99 0.6 166.49 0.6ZM165.89-19.8L165.89-19.8Q163.69-19.8 162.21-18.65 160.74-17.5 160.19-15.15L160.19-15.15 170.79-15.15Q170.24-19.8 165.89-19.8ZM194.79 0.6L194.79 0.6Q191.44 0.6 188.24-0.5 185.04-1.6 182.64-3.2L182.64-3.2 185.79-7.8Q188.09-6.35 190.59-5.6 193.09-4.85 195.79-4.85L195.79-4.85Q197.84-4.85 198.79-5.45 199.74-6.05 199.74-6.95L199.74-6.95Q199.74-7.45 199.46-7.85 199.19-8.25 198.51-8.58 197.84-8.9 196.64-9.2 195.44-9.5 193.64-9.9L193.64-9.9Q188.59-11 186.39-12.88 184.19-14.75 184.19-17.65L184.19-17.65Q184.19-19.35 184.99-20.8 185.79-22.25 187.26-23.25 188.74-24.25 190.84-24.83 192.94-25.4 195.59-25.4L195.59-25.4Q198.94-25.4 201.66-24.33 204.39-23.25 206.34-22L206.34-22 203.04-17.6Q201.14-18.75 199.09-19.35 197.04-19.95 194.94-19.95L194.94-19.95Q193.19-19.95 192.34-19.4 191.49-18.85 191.49-18L191.49-18Q191.49-16.95 192.79-16.5 194.09-16.05 197.24-15.35L197.24-15.35Q200.09-14.7 201.99-13.95 203.89-13.2 204.99-12.25 206.09-11.3 206.54-10.1 206.99-8.9 206.99-7.4L206.99-7.4Q206.99-5.7 206.19-4.25 205.39-2.8 203.86-1.73 202.34-0.65 200.06-0.03 197.79 0.6 194.79 0.6ZM229.38 0.6L229.38 0.6Q226.43 0.6 224.38-0.2 222.33-1 221.06-2.43 219.78-3.85 219.23-5.85 218.68-7.85 218.68-10.3L218.68-10.3 218.68-19.05 212.43-19.05 212.43-24.5 219.03-24.8 219.98-32.4 226.03-32.4 226.03-24.8 236.53-24.8 236.53-19.05 226.03-19.05 226.03-10.35Q226.03-7.5 227.28-6.33 228.53-5.15 231.28-5.15L231.28-5.15Q232.68-5.15 233.86-5.4 235.03-5.65 236.18-6.05L236.18-6.05 237.48-0.75Q235.83-0.25 233.86 0.18 231.88 0.6 229.38 0.6ZM254.98 0.6L254.98 0.6Q252.38 0.6 250.78-1.07 249.18-2.75 249.18-5.25L249.18-5.25Q249.18-6.5 249.61-7.58 250.03-8.65 250.78-9.45 251.53-10.25 252.61-10.7 253.68-11.15 254.98-11.15L254.98-11.15Q256.28-11.15 257.36-10.7 258.43-10.25 259.18-9.45 259.93-8.65 260.36-7.58 260.78-6.5 260.78-5.25L260.78-5.25Q260.78-2.75 259.18-1.07 257.58 0.6 254.98 0.6Z" opacity="1" transform="matrix(1,0,0,1,0,0)" fill="#97978d" class="wordmark-text-0" data-fill-palette-color="primary" id="text-0"></path></svg></g></svg></g></svg></g></svg></g></svg></g><defs></defs></svg><rect width="395.52" height="64.71586474931986" fill="none" stroke="none" visibility="hidden"></rect></g></svg></g></svg>